<svg width="376" height="146" viewBox="0 0 376 146" fill="none" xmlns="http://www.w3.org/2000/svg">
<path d="M39.8795 43.256C38.4715 43.256 36.9782 43.0853 35.3995 42.744C33.8635 42.36 32.3702 41.5707 30.9195 40.376C29.5115 39.1813 28.2955 37.368 27.2715 34.936L25.7995 31.352H8.7755L3.5275 43H0.1995L19.0795 0.759998H21.9595L36.2955 34.936C37.0635 36.8133 38.0022 38.3067 39.1115 39.416C40.2208 40.5253 41.5008 41.1653 42.9515 41.336V42.936C42.6102 43.0213 42.1195 43.0853 41.4795 43.128C40.8822 43.2133 40.3488 43.256 39.8795 43.256ZM10.1195 28.472H24.5835L17.5435 11.768L10.1195 28.472ZM70.181 43.64C68.389 43.64 66.7037 43.2773 65.125 42.552C63.5463 41.784 62.053 40.44 60.645 38.52L54.501 30.456V43H46.181V21.24C46.181 19.32 45.9037 17.784 45.349 16.632C44.837 15.4373 43.621 14.84 41.701 14.84H41.061V12.92H48.741C50.2343 12.92 51.3863 13.176 52.197 13.688C53.0503 14.2 53.6477 15.0533 53.989 16.248C54.3303 17.4427 54.501 19.1067 54.501 21.24V27.32L62.245 17.848C63.5677 16.2693 64.869 15.0533 66.149 14.2C67.429 13.3467 69.1997 12.92 71.461 12.92H72.741V14.584C71.461 14.584 70.309 14.84 69.285 15.352C68.261 15.864 67.2797 16.6747 66.341 17.784L60.133 25.336L68.645 36.6C69.7543 38.0933 70.7997 39.224 71.781 39.992C72.7623 40.76 73.701 41.2507 74.597 41.464V43C74.2557 43.1707 73.637 43.32 72.741 43.448C71.845 43.576 70.9917 43.64 70.181 43.64ZM79.4235 43V21.24C79.4235 19.32 79.1462 17.784 78.5915 16.632C78.0795 15.4373 76.8635 14.84 74.9435 14.84H74.6235V12.92H91.7755C94.3355 12.92 96.5755 13.2187 98.4955 13.816C100.458 14.3707 101.973 15.224 103.04 16.376C104.149 17.4853 104.704 18.8933 104.704 20.6C104.704 22.52 103.978 24.0347 102.528 25.144C101.12 26.2533 99.1355 26.9787 96.5755 27.32C99.3062 27.6613 101.546 28.4507 103.296 29.688C105.088 30.9253 105.984 32.5893 105.984 34.68C105.984 36.6 105.429 38.1787 104.32 39.416C103.21 40.6533 101.589 41.5707 99.4555 42.168C97.3648 42.7227 94.8048 43 91.7755 43H79.4235ZM90.6235 40.44C92.5435 40.44 94.1435 39.9707 95.4235 39.032C96.7035 38.0507 97.3435 36.6 97.3435 34.68C97.3435 32.632 96.6822 31.1173 95.3595 30.136C94.0368 29.112 92.2448 28.6 89.9835 28.6H87.7435V39.992C88.2128 40.1627 88.7248 40.2907 89.2795 40.376C89.8342 40.4187 90.2822 40.44 90.6235 40.44ZM87.7435 25.72H89.9835C91.6048 25.72 93.0128 25.272 94.2075 24.376C95.4448 23.48 96.0635 22.2213 96.0635 20.6C96.0635 18.808 95.4662 17.5067 94.2715 16.696C93.1195 15.8853 91.9035 15.48 90.6235 15.48C90.2822 15.48 89.8342 15.5227 89.2795 15.608C88.7248 15.6507 88.2128 15.7573 87.7435 15.928V25.72ZM120.986 43.64C119.194 43.64 117.615 43.4267 116.25 43C114.927 42.5733 113.797 41.9973 112.858 41.272C111.962 40.504 111.279 39.5867 110.81 38.52C110.341 37.4533 110.106 36.28 110.106 35C110.106 32.952 110.575 31.224 111.514 29.816C112.495 28.3653 114.245 27.2773 116.762 26.552C119.279 25.784 122.821 25.4 127.386 25.4H128.346C128.346 22.84 128.111 20.8133 127.642 19.32C127.173 17.8267 126.469 16.76 125.53 16.12C124.634 15.48 123.546 15.16 122.266 15.16C120.815 15.16 119.514 15.5227 118.362 16.248C117.21 16.9733 116.378 18.5307 115.866 20.92H112.346C112.346 19.8107 112.41 18.68 112.538 17.528C112.709 16.376 113.178 15.3733 113.946 14.52C114.714 13.6667 115.973 13.0907 117.722 12.792C119.514 12.4507 121.455 12.28 123.546 12.28C125.637 12.28 127.493 12.5573 129.114 13.112C130.735 13.6667 132.101 14.4987 133.21 15.608C134.362 16.7173 135.215 18.1253 135.77 19.832C136.367 21.496 136.666 23.4587 136.666 25.72V43H131.226L128.986 40.12H128.666C128.111 41.016 127.173 41.8267 125.85 42.552C124.527 43.2773 122.906 43.64 120.986 43.64ZM122.906 40.44C124.314 40.44 125.487 39.9707 126.426 39.032C127.365 38.0933 128.005 37.176 128.346 36.28V28.28H127.386C124.314 28.28 122.095 28.8347 120.73 29.944C119.407 31.0533 118.746 32.7387 118.746 35C118.746 36.792 119.109 38.1573 119.834 39.096C120.602 39.992 121.626 40.44 122.906 40.44ZM151.328 43V15.8H149.408C147.488 15.8 145.995 16.312 144.928 17.336C143.861 18.36 143.328 20.088 143.328 22.52H141.408V18.04C141.408 16.76 141.728 15.5867 142.368 14.52C143.008 13.4533 144.288 12.92 146.208 12.92H169.312V15.8H159.648V43H151.328ZM186.088 43.64C183.101 43.64 180.499 42.9573 178.28 41.592C176.061 40.2267 174.355 38.3707 173.16 36.024C171.965 33.6347 171.368 30.9467 171.368 27.96C171.368 24.5467 171.987 21.688 173.224 19.384C174.461 17.0373 176.147 15.2667 178.28 14.072C180.413 12.8773 182.803 12.28 185.448 12.28C188.093 12.28 190.483 12.8133 192.616 13.88C194.749 14.9467 196.435 16.44 197.672 18.36C198.909 20.28 199.528 22.52 199.528 25.08L199.272 29.112H180.008C180.008 33.336 180.648 36.344 181.928 38.136C183.251 39.8853 184.957 40.76 187.048 40.76C189.267 40.76 191.059 40.248 192.424 39.224C193.832 38.2 195.091 36.9413 196.2 35.448L198.184 36.92C197.587 37.8587 196.776 38.8613 195.752 39.928C194.771 40.952 193.491 41.8267 191.912 42.552C190.376 43.2773 188.435 43.64 186.088 43.64ZM180.008 26.232H190.888C190.888 22.008 190.376 19.1067 189.352 17.528C188.371 15.9493 187.069 15.16 185.448 15.16C184.509 15.16 183.613 15.5013 182.76 16.184C181.949 16.8667 181.288 18.0187 180.776 19.64C180.264 21.2187 180.008 23.416 180.008 26.232ZM206.683 55.16V21.24C206.683 19.32 206.427 17.784 205.915 16.632C205.403 15.4373 204.187 14.84 202.267 14.84H201.627V12.92H207.963C209.413 12.92 210.544 13.112 211.355 13.496C212.208 13.88 212.869 14.584 213.339 15.608C214.107 14.9253 215.195 14.2 216.603 13.432C218.011 12.664 219.824 12.28 222.043 12.28C225.029 12.28 227.504 12.984 229.467 14.392C231.472 15.7573 232.965 17.6347 233.947 20.024C234.971 22.3707 235.483 25.016 235.483 27.96C235.483 30.8613 234.971 33.5067 233.947 35.896C232.965 38.2853 231.451 40.184 229.403 41.592C227.397 42.9573 224.837 43.64 221.723 43.64C220.315 43.64 218.992 43.4267 217.755 43C216.56 42.616 215.643 42.1893 215.003 41.72V55.16H206.683ZM220.443 40.76C222.064 40.76 223.323 40.2053 224.219 39.096C225.157 37.9867 225.819 36.472 226.203 34.552C226.629 32.5893 226.843 30.392 226.843 27.96C226.843 25.4853 226.629 23.288 226.203 21.368C225.819 19.448 225.179 17.9333 224.283 16.824C223.429 15.7147 222.256 15.16 220.763 15.16C219.312 15.16 218.139 15.3947 217.243 15.864C216.347 16.3333 215.6 16.824 215.003 17.336V38.84C215.515 39.2667 216.283 39.6933 217.307 40.12C218.331 40.5467 219.376 40.76 220.443 40.76ZM250.611 43.64C248.819 43.64 247.24 43.4267 245.875 43C244.552 42.5733 243.422 41.9973 242.483 41.272C241.587 40.504 240.904 39.5867 240.435 38.52C239.966 37.4533 239.731 36.28 239.731 35C239.731 32.952 240.2 31.224 241.139 29.816C242.12 28.3653 243.87 27.2773 246.387 26.552C248.904 25.784 252.446 25.4 257.011 25.4H257.971C257.971 22.84 257.736 20.8133 257.267 19.32C256.798 17.8267 256.094 16.76 255.155 16.12C254.259 15.48 253.171 15.16 251.891 15.16C250.44 15.16 249.139 15.5227 247.987 16.248C246.835 16.9733 246.003 18.5307 245.491 20.92H241.971C241.971 19.8107 242.035 18.68 242.163 17.528C242.334 16.376 242.803 15.3733 243.571 14.52C244.339 13.6667 245.598 13.0907 247.347 12.792C249.139 12.4507 251.08 12.28 253.171 12.28C255.262 12.28 257.118 12.5573 258.739 13.112C260.36 13.6667 261.726 14.4987 262.835 15.608C263.987 16.7173 264.84 18.1253 265.395 19.832C265.992 21.496 266.291 23.4587 266.291 25.72V43H260.851L258.611 40.12H258.291C257.736 41.016 256.798 41.8267 255.475 42.552C254.152 43.2773 252.531 43.64 250.611 43.64ZM252.531 40.44C253.939 40.44 255.112 39.9707 256.051 39.032C256.99 38.0933 257.63 37.176 257.971 36.28V28.28H257.011C253.939 28.28 251.72 28.8347 250.355 29.944C249.032 31.0533 248.371 32.7387 248.371 35C248.371 36.792 248.734 38.1573 249.459 39.096C250.227 39.992 251.251 40.44 252.531 40.44ZM274.361 43V21.24C274.361 19.32 274.084 17.784 273.529 16.632C273.017 15.4373 271.801 14.84 269.881 14.84H269.561V12.92H301.241V43H292.921V15.8H282.681V43H274.361ZM310.119 43V21.24C310.119 19.32 309.841 17.784 309.286 16.632C308.775 15.4373 307.559 14.84 305.639 14.84H304.998V12.92H312.679C314.172 12.92 315.324 13.176 316.135 13.688C316.988 14.2 317.585 15.0533 317.927 16.248C318.268 17.4427 318.439 19.1067 318.439 21.24V35L329.959 12.92H337.639V43H329.319V20.92L317.799 43H310.119ZM346.62 43.96C345.809 43.96 345.02 43.896 344.252 43.768C343.527 43.64 342.929 43.4907 342.46 43.32V41.656C343.612 41.4853 344.636 40.952 345.532 40.056C346.428 39.1173 347.217 38.072 347.9 36.92L351.74 30.264C349.479 29.9227 347.687 29.0267 346.364 27.576C345.041 26.0827 344.38 24.2907 344.38 22.2C344.38 19.9387 344.977 18.1467 346.172 16.824C347.367 15.4587 349.031 14.4773 351.164 13.88C353.297 13.24 355.729 12.92 358.46 12.92H375.1V14.84H374.78C372.86 14.84 371.623 15.4373 371.068 16.632C370.556 17.784 370.3 19.32 370.3 21.24V43H361.98V30.584H359.164L355.324 38.2C354.385 40.12 353.276 41.5707 351.996 42.552C350.716 43.4907 348.924 43.96 346.62 43.96ZM359.1 27.96C359.911 27.96 360.593 27.8747 361.148 27.704C361.703 27.5333 361.98 27.4693 361.98 27.512V15.928C361.98 15.9707 361.703 15.9067 361.148 15.736C360.593 15.5653 359.911 15.48 359.1 15.48C357.521 15.48 356.113 15.928 354.876 16.824C353.639 17.72 353.02 19.2987 353.02 21.56C353.02 23.8213 353.617 25.464 354.812 26.488C356.049 27.4693 357.479 27.96 359.1 27.96ZM95.2135 133.64C93.7202 133.64 92.2908 133.341 90.9255 132.744C89.5602 132.147 88.2162 131.187 86.8935 129.864C85.6135 128.499 84.2695 126.664 82.8615 124.36L76.4615 113.672H73.9015V133H65.5175V99.08C65.5175 97.16 65.2402 95.624 64.6855 94.472C64.1735 93.2773 62.9575 92.68 61.0375 92.68H60.3975V90.76H78.0615C79.2135 90.76 80.5362 90.8453 82.0295 91.016C83.5655 91.144 85.1015 91.4427 86.6375 91.912C88.1735 92.3387 89.6028 92.9787 90.9255 93.832C92.2482 94.6853 93.3148 95.816 94.1255 97.224C94.9362 98.5893 95.3415 100.296 95.3415 102.344C95.3415 104.605 94.8295 106.461 93.8055 107.912C92.8242 109.32 91.5442 110.429 89.9655 111.24C88.3868 112.051 86.7228 112.691 84.9735 113.16L91.6935 124.36C93.3148 127.091 94.8082 128.904 96.1735 129.8C97.5388 130.696 98.6908 131.229 99.6295 131.4V133C99.2882 133.171 98.6695 133.32 97.7735 133.448C96.9202 133.576 96.0668 133.64 95.2135 133.64ZM73.9015 111.112H77.7415C78.7655 111.112 79.7895 110.963 80.8135 110.664C81.8375 110.365 82.7548 109.875 83.5655 109.192C84.4188 108.509 85.1015 107.592 85.6135 106.44C86.1255 105.288 86.3815 103.88 86.3815 102.216C86.3815 100.552 86.1255 99.1653 85.6135 98.056C85.1442 96.904 84.4828 95.9867 83.6295 95.304C82.8188 94.5787 81.9015 94.0667 80.8775 93.768C79.8962 93.4693 78.8935 93.32 77.8695 93.32C77.5282 93.32 77.0162 93.3413 76.3335 93.384C75.6935 93.4267 74.8828 93.5547 73.9015 93.768V111.112ZM103.931 133V111.24C103.931 109.32 103.654 107.784 103.099 106.632C102.587 105.437 101.371 104.84 99.451 104.84H98.811V102.92H106.491C107.984 102.92 109.136 103.176 109.947 103.688C110.8 104.2 111.398 105.053 111.739 106.248C112.08 107.443 112.251 109.107 112.251 111.24V133H103.931ZM108.091 99.464C106.47 99.464 105.254 98.9733 104.443 97.992C103.675 97.0107 103.291 95.88 103.291 94.6C103.291 93.4907 103.632 92.616 104.315 91.976C104.998 91.336 105.83 91.016 106.811 91.016C108.432 91.016 109.627 91.5067 110.395 92.488C111.206 93.4693 111.611 94.6 111.611 95.88C111.611 96.9893 111.27 97.864 110.587 98.504C109.904 99.144 109.072 99.464 108.091 99.464ZM130.402 133.64C127.5 133.64 125.218 132.851 123.554 131.272C121.932 129.693 121.122 127.368 121.122 124.296V105.8H117.282V102.92H121.122V97.16L124.322 93.32H129.442V102.92H136.482V105.8H129.442V124.68C129.442 127.069 129.719 128.691 130.274 129.544C130.871 130.355 131.703 130.76 132.77 130.76C133.879 130.76 134.86 130.568 135.714 130.184C136.567 129.8 137.271 129.416 137.826 129.032L138.722 130.824C137.868 131.592 136.759 132.253 135.394 132.808C134.028 133.363 132.364 133.64 130.402 133.64ZM143.683 133V111.24C143.683 109.32 143.427 107.784 142.915 106.632C142.403 105.437 141.187 104.84 139.267 104.84H138.627V102.92H144.963C146.243 102.92 147.352 103.112 148.291 103.496C149.229 103.837 149.933 104.456 150.403 105.352H150.659C151.427 104.669 152.472 103.987 153.795 103.304C155.16 102.621 156.803 102.28 158.723 102.28C160.344 102.28 161.752 102.515 162.947 102.984C164.141 103.411 165.123 103.923 165.891 104.52C166.701 105.075 167.256 105.544 167.555 105.928C168.408 104.989 169.517 104.157 170.882 103.432C172.248 102.664 174.168 102.28 176.643 102.28C179.032 102.28 181.059 102.685 182.723 103.496C184.387 104.307 185.645 105.587 186.499 107.336C187.395 109.043 187.843 111.283 187.843 114.056V133H179.523V113.992C179.523 110.877 179.032 108.68 178.051 107.4C177.069 106.12 175.853 105.48 174.403 105.48C173.208 105.48 172.12 105.715 171.139 106.184C170.2 106.653 169.453 107.229 168.899 107.912C169.24 108.552 169.496 109.427 169.667 110.536C169.837 111.603 169.923 112.776 169.923 114.056V133H161.603V113.992C161.603 110.877 161.112 108.68 160.131 107.4C159.149 106.12 157.933 105.48 156.483 105.48C155.672 105.48 154.84 105.715 153.987 106.184C153.176 106.611 152.515 107.059 152.003 107.528V133H143.683ZM208.91 134.088C207.16 134.088 205.432 133.917 203.726 133.576C202.019 133.235 200.462 132.744 199.054 132.104C197.646 131.421 196.515 130.611 195.661 129.672C194.851 128.691 194.446 127.603 194.446 126.408V118.92H196.238C196.92 123.357 198.286 126.515 200.334 128.392C202.424 130.269 205.262 131.208 208.846 131.208C210.467 131.208 211.875 130.973 213.07 130.504C214.307 130.035 215.246 129.352 215.886 128.456C216.568 127.517 216.91 126.365 216.91 125C216.91 123.165 216.312 121.651 215.118 120.456C213.966 119.219 212.366 117.981 210.318 116.744L202.446 112.008C199.544 110.301 197.496 108.552 196.302 106.76C195.107 104.968 194.51 102.899 194.51 100.552C194.51 97.1813 195.79 94.5147 198.35 92.552C200.952 90.5893 204.451 89.608 208.846 89.608C210.595 89.608 212.323 89.7787 214.03 90.12C215.736 90.4613 217.294 90.9733 218.702 91.656C220.11 92.296 221.219 93.0853 222.03 94.024C222.883 94.9627 223.31 96.0507 223.31 97.288V104.776H221.518C220.792 100.339 219.427 97.1813 217.422 95.304C215.416 93.4267 212.792 92.488 209.55 92.488C208.014 92.488 206.67 92.744 205.518 93.256C204.408 93.768 203.555 94.4933 202.958 95.432C202.36 96.328 202.062 97.416 202.062 98.696C202.062 100.488 202.659 101.939 203.854 103.048C205.091 104.157 206.712 105.309 208.718 106.504L216.59 111.176C219.491 112.883 221.603 114.568 222.926 116.232C224.291 117.853 224.974 119.837 224.974 122.184C224.974 125.853 223.587 128.755 220.814 130.888C218.04 133.021 214.072 134.088 208.91 134.088ZM241.777 133.64C238.875 133.64 236.593 132.851 234.929 131.272C233.307 129.693 232.497 127.368 232.497 124.296V105.8H228.657V102.92H232.497V97.16L235.697 93.32H240.817V102.92H247.857V105.8H240.817V124.68C240.817 127.069 241.094 128.691 241.649 129.544C242.246 130.355 243.078 130.76 244.145 130.76C245.254 130.76 246.235 130.568 247.089 130.184C247.942 129.8 248.646 129.416 249.201 129.032L250.097 130.824C249.243 131.592 248.134 132.253 246.769 132.808C245.403 133.363 243.739 133.64 241.777 133.64ZM255.826 145.8V143.56C258.044 143.56 259.9 143.133 261.394 142.28C262.887 141.427 264.103 139.784 265.042 137.352L266.385 133.896L254.866 108.68C254.183 107.101 253.33 105.907 252.306 105.096C251.324 104.243 250.194 103.731 248.913 103.56V102.28H254.546C256.466 102.28 258.151 102.749 259.602 103.688C261.052 104.584 262.14 105.821 262.866 107.4L270.226 123.528L278.034 102.92H281.426L268.498 137.16C267.644 139.464 266.706 141.235 265.682 142.472C264.7 143.752 263.612 144.627 262.418 145.096C261.223 145.565 259.879 145.8 258.385 145.8H255.826ZM286.596 133V99.08C286.596 97.16 286.319 95.624 285.764 94.472C285.252 93.2773 284.036 92.68 282.116 92.68H281.476V90.76H289.156C290.649 90.76 291.801 91.016 292.612 91.528C293.465 92.04 294.063 92.8933 294.404 94.088C294.745 95.2827 294.916 96.9467 294.916 99.08V133H286.596ZM316.088 133.64C313.101 133.64 310.499 132.957 308.28 131.592C306.061 130.227 304.355 128.371 303.16 126.024C301.965 123.635 301.368 120.947 301.368 117.96C301.368 114.547 301.987 111.688 303.224 109.384C304.461 107.037 306.147 105.267 308.28 104.072C310.413 102.877 312.803 102.28 315.448 102.28C318.093 102.28 320.483 102.813 322.616 103.88C324.749 104.947 326.435 106.44 327.672 108.36C328.909 110.28 329.528 112.52 329.528 115.08L329.272 119.112H310.008C310.008 123.336 310.648 126.344 311.928 128.136C313.251 129.885 314.957 130.76 317.048 130.76C319.267 130.76 321.059 130.248 322.424 129.224C323.832 128.2 325.091 126.941 326.2 125.448L328.184 126.92C327.587 127.859 326.776 128.861 325.752 129.928C324.771 130.952 323.491 131.827 321.912 132.552C320.376 133.277 318.435 133.64 316.088 133.64ZM310.008 116.232H320.888C320.888 112.008 320.376 109.107 319.352 107.528C318.371 105.949 317.069 105.16 315.448 105.16C314.509 105.16 313.613 105.501 312.76 106.184C311.949 106.867 311.288 108.019 310.776 109.64C310.264 111.219 310.008 113.416 310.008 116.232Z" fill="white"/>
</svg>
